<svg width="640" height="640" viewBox="0 0 640 640" fill="none" xmlns="http://www.w3.org/2000/svg">
  <rect width="640" height="640" rx="64" fill="url(#bg)"/>
  <circle cx="506" cy="116" r="70" fill="#FFF8D3" fill-opacity="0.78"/>
  <path d="M180 430C180 343.948 249.948 274 336 274V274C422.052 274 492 343.948 492 430V480H180V430Z" fill="#5A4A1D"/>
  <circle cx="336" cy="236" r="122" fill="#6C5A1E"/>
  <path d="M250 147L213 105" stroke="#6C5A1E" stroke-width="42" stroke-linecap="round"/>
  <path d="M423 147L460 105" stroke="#6C5A1E" stroke-width="42" stroke-linecap="round"/>
  <circle cx="289" cy="231" r="14" fill="#201B0A"/>
  <circle cx="383" cy="231" r="14" fill="#201B0A"/>
  <ellipse cx="336" cy="274" rx="34" ry="26" fill="#FFDF83"/>
  <path d="M311 305C324.333 317.667 347.667 317.667 361 305" stroke="#201B0A" stroke-width="12" stroke-linecap="round"/>
  <path d="M126 488C154.667 451.333 194.267 433 244.8 433C295.333 433 334.067 451.333 361 488" stroke="#FFF6D2" stroke-width="18" stroke-linecap="round"/>
  <path d="M392 488C420.667 451.333 460.267 433 510.8 433" stroke="#FFF6D2" stroke-width="18" stroke-linecap="round"/>
  <text x="60" y="94" fill="#4D3A00" font-family="'Trebuchet MS', 'Arial', sans-serif" font-size="38" font-weight="700">4-6 Jahre</text>
  <text x="60" y="548" fill="#5A4200" font-family="'Trebuchet MS', 'Arial', sans-serif" font-size="44" font-weight="700">Tiergeschichten</text>
  <defs>
    <linearGradient id="bg" x1="70" y1="40" x2="566" y2="590" gradientUnits="userSpaceOnUse">
      <stop stop-color="#FFF2A8"/>
      <stop offset="1" stop-color="#FFBE28"/>
    </linearGradient>
  </defs>
</svg>
